<svg width="1908" height="621" viewBox="0 0 1908 621" fill="none" xmlns="http://www.w3.org/2000/svg">
<path d="M298.487 620.676C253.308 620.676 205.904 592.943 163.881 568.356C150.967 560.802 138.77 553.665 127.179 547.63L-60.0312 450.168L-59.3798 448.919L127.831 546.381C139.453 552.43 151.664 559.576 164.595 567.141C208.242 592.678 257.716 621.623 304.19 619.115C354.651 616.395 381.234 571.933 398.755 533.505C404.486 520.937 410.019 508.149 415.372 495.78C430.011 461.956 445.147 426.979 465.291 394.426C481.287 368.578 501.158 341.471 522.755 316.038C546.447 288.136 571.814 262.536 598.146 239.953C627.18 215.055 656.701 194.459 685.887 178.739C718.169 161.354 749.972 150.003 780.419 145C841.41 134.979 896.883 150.186 945.291 190.203C985.521 223.455 1019.71 264.574 1052.78 304.34C1081.56 338.954 1111.32 374.743 1145.02 405.337C1183.95 440.672 1226.08 473.281 1270.25 502.255C1307.46 526.667 1353.77 557.053 1401.5 550.223C1441.81 544.456 1465.12 517.498 1472.75 467.805C1479.25 425.536 1473.07 375.394 1468.11 335.106C1466.42 321.376 1464.82 308.408 1464.04 297.891C1459.71 239.916 1462.47 192.058 1472.47 151.584C1478.7 126.331 1487.91 103.821 1499.82 84.6797C1513.13 63.2971 1530.22 45.4717 1550.61 31.6995C1568.25 19.7849 1588.13 11.1316 1609.7 5.97899C1630.23 1.07447 1651.85 -0.568825 1673.96 1.0942C1717.43 4.36388 1759.96 20.3064 1793.7 45.9819C1811.73 59.7061 1828.11 76.218 1842.37 95.0553C1855.88 112.909 1867.59 132.964 1877.17 154.668C1895.21 195.553 1905.57 242.081 1907.13 289.218L1905.72 289.266C1902.4 188.887 1860.2 98.3588 1792.84 47.1065C1721.31 -7.32241 1619.77 -13.3121 1551.39 32.8693C1483.67 78.6167 1455.55 165.272 1465.44 297.787C1466.22 308.27 1467.82 321.221 1469.51 334.934C1474.48 375.309 1480.67 425.558 1474.14 468.019C1470.59 491.146 1463.45 509.733 1452.92 523.265C1447 530.873 1439.86 537.091 1431.7 541.742C1423.02 546.691 1412.93 550.015 1401.7 551.621C1397.11 552.278 1392.44 552.608 1387.7 552.608C1370.4 552.608 1351.98 548.236 1331.79 539.38C1309.05 529.401 1287.1 515.004 1269.47 503.436C1225.24 474.42 1183.05 441.768 1144.07 406.383C1110.29 375.724 1080.5 339.892 1051.69 305.242C1018.66 265.527 984.514 224.459 944.386 191.291C896.302 151.547 841.21 136.439 780.639 146.392C658.114 166.523 531.901 289.463 466.481 395.17C446.391 427.633 431.274 462.562 416.655 496.341C411.299 508.715 405.763 521.512 400.027 534.092C388.394 559.604 376.905 577.872 363.87 591.576C355.734 600.128 346.907 606.87 337.634 611.614C327.323 616.888 316.094 619.887 304.254 620.527C302.342 620.626 300.416 620.676 298.487 620.676Z" fill="#A1A1A1"/>
</svg>
